<?xml version="1.0" encoding="UTF-8" standalone="no"?>
<svg
   xmlns:dc="http://purl.org/dc/elements/1.1/"
   xmlns:cc="http://creativecommons.org/ns#"
   xmlns:rdf="http://www.w3.org/1999/02/22-rdf-syntax-ns#"
   xmlns:svg="http://www.w3.org/2000/svg"
   xmlns="http://www.w3.org/2000/svg"
   xmlns:sodipodi="http://sodipodi.sourceforge.net/DTD/sodipodi-0.dtd"
   xmlns:inkscape="http://www.inkscape.org/namespaces/inkscape"
   viewBox="0 -256 1792 1792"
   id="svg2"
   version="1.1"
   inkscape:version="0.48.3.1 r9886"
   width="100%"
   height="100%"
   sodipodi:docname="bookmark_font_awesome.svg">
  <path transform="matrix(1,0,0,-1,258.16949,1270.2373)" d="m 1164,1408 q 23,0 44,-9 33,-13 52.5,-41 19.5,-28 19.5,-62 V 7 q 0,-34 -19.5,-62 -19.5,-28 -52.5,-41 -19,-8 -44,-8 -48,0 -83,32 L 640,352 199,-72 q -36,-33 -83,-33 -23,0 -44,9 Q 39,-83 19.5,-55 0,-27 0,7 v 1289 q 0,34 19.5,62 19.5,28 52.5,41 21,9 44,9 h 1048 z" fill="#FFFFFF" />
</svg>
