<?xml version="1.0" standalone="no"?>
<!DOCTYPE svg PUBLIC "-//W3C//DTD SVG 20010904//EN"
 "http://www.w3.org/TR/2001/REC-SVG-20010904/DTD/svg10.dtd">
<svg version="1.0" xmlns="http://www.w3.org/2000/svg"
 width="1024.000000pt" height="1024.000000pt" viewBox="0 0 1024.000000 1024.000000"
 preserveAspectRatio="xMidYMid meet">
<metadata>
Created by potrace 1.11, written by Peter Selinger 2001-2013
</metadata>
<g transform="translate(0.000000,1024.000000) scale(0.100000,-0.100000)"
fill="#000000" stroke="none">
<path d="M1877 10214 c-1 -1 -31 -5 -67 -8 -95 -8 -126 -15 -214 -47 -174 -63
-318 -175 -411 -319 -39 -60 -83 -149 -89 -181 -1 -8 -8 -32 -14 -54 -19 -70
-23 -107 -27 -235 -4 -114 1 -170 20 -255 4 -16 7 -38 8 -47 1 -10 5 -18 9
-18 4 0 8 -7 8 -16 0 -29 99 -220 166 -319 56 -84 150 -209 189 -251 5 -7 21
-26 35 -44 14 -18 30 -37 35 -44 6 -6 51 -60 100 -121 49 -60 92 -112 95 -115
3 -3 17 -22 33 -42 27 -36 34 -58 19 -58 -4 0 -25 -23 -47 -51 -22 -28 -47
-59 -56 -68 -22 -23 -107 -135 -164 -216 -27 -38 -53 -74 -57 -80 -24 -31 -78
-116 -78 -122 0 -5 -11 -21 -25 -37 -14 -16 -25 -33 -25 -39 0 -5 -8 -21 -19
-35 -10 -15 -29 -47 -43 -72 -14 -25 -35 -61 -47 -80 -11 -19 -24 -42 -28 -50
-3 -8 -34 -73 -69 -145 -55 -115 -142 -313 -148 -340 -2 -5 -9 -23 -15 -40
-12 -27 -85 -239 -90 -257 -1 -4 -3 -13 -6 -20 -4 -12 -31 -115 -39 -148 -2
-8 -14 -55 -26 -104 -12 -49 -23 -101 -25 -115 -2 -14 -7 -36 -10 -48 -10 -45
-14 -62 -21 -110 -7 -48 -10 -66 -18 -113 -3 -14 -8 -52 -12 -85 -3 -33 -8
-73 -10 -90 -4 -38 -14 -169 -19 -260 -6 -93 -6 -399 -1 -500 6 -121 16 -256
21 -295 3 -19 7 -53 10 -75 2 -22 7 -58 10 -80 3 -22 8 -53 10 -70 6 -36 9
-54 42 -215 14 -69 36 -165 49 -215 14 -49 27 -99 29 -109 6 -26 84 -266 94
-291 20 -46 74 -181 76 -190 8 -34 142 -313 190 -397 19 -31 31 -59 28 -62 -4
-3 -1 -6 5 -6 7 0 12 -4 12 -9 0 -5 22 -45 48 -88 27 -43 55 -89 63 -103 8
-14 16 -27 19 -30 3 -3 34 -48 69 -100 36 -52 75 -108 88 -125 13 -16 27 -34
31 -40 6 -8 54 -71 85 -110 4 -5 27 -32 52 -60 24 -27 45 -56 45 -63 0 -7 -70
-99 -156 -205 -86 -106 -165 -205 -177 -220 -24 -30 -48 -60 -76 -92 -37 -43
-117 -152 -148 -200 -40 -63 -104 -201 -96 -209 4 -3 0 -6 -7 -6 -7 0 -11 -2
-8 -6 3 -3 -1 -26 -8 -52 -23 -76 -43 -230 -35 -262 1 -3 4 -38 6 -78 7 -120
59 -284 107 -336 10 -11 18 -23 18 -28 0 -11 42 -59 115 -131 51 -50 226 -171
229 -157 1 2 15 -3 31 -12 36 -19 80 -36 115 -42 14 -3 36 -8 50 -11 101 -23
302 -22 382 1 9 3 27 7 39 9 26 5 162 68 181 84 7 6 38 30 68 53 70 53 101 81
224 203 120 119 169 176 298 349 53 72 103 138 110 146 8 8 32 40 53 70 47 65
60 80 73 80 5 0 49 -20 98 -45 49 -25 93 -45 97 -45 4 0 27 -9 51 -19 77 -36
247 -98 311 -115 6 -2 17 -6 25 -9 21 -9 219 -66 244 -71 12 -2 53 -11 91 -20
39 -9 79 -18 90 -19 11 -2 27 -6 35 -10 8 -3 49 -10 90 -17 41 -6 84 -13 95
-15 70 -11 96 -15 145 -20 202 -24 298 -28 605 -28 298 0 363 3 565 28 14 2
45 6 70 8 25 3 59 8 75 11 17 3 46 8 65 11 19 3 58 10 85 15 28 5 61 11 75 14
14 2 53 11 87 20 34 9 66 16 70 15 4 -1 15 0 23 4 8 3 65 20 125 37 61 17 155
47 210 66 55 19 105 36 110 38 10 3 27 9 63 23 9 3 19 7 22 8 3 0 20 9 37 18
18 10 34 17 35 16 9 -3 210 89 218 99 3 4 10 8 15 9 6 1 17 4 25 7 10 4 25 -8
42 -32 36 -51 60 -81 81 -103 9 -11 17 -23 17 -29 0 -5 5 -10 10 -10 6 0 10
-7 10 -15 0 -8 9 -20 20 -27 11 -7 20 -16 20 -20 0 -7 155 -213 181 -241 8 -9
24 -29 37 -45 26 -34 163 -174 238 -242 68 -63 208 -170 222 -170 7 0 12 -3
12 -8 0 -7 105 -51 138 -57 9 -2 17 -4 17 -5 0 -3 39 -9 85 -15 98 -11 222 -8
321 10 104 18 250 86 344 158 41 32 147 136 177 174 59 75 125 246 135 348 8
82 8 207 1 212 -5 2 -6 8 -3 12 4 7 -9 100 -19 136 -40 148 -110 283 -214 415
-24 30 -53 67 -65 83 -12 15 -33 40 -47 56 -14 15 -36 43 -50 61 -53 70 -133
165 -141 168 -5 2 -9 10 -9 17 0 7 -4 15 -8 17 -8 3 -172 204 -172 211 0 2 8
13 18 24 56 66 198 246 222 283 8 13 24 35 36 49 11 14 39 55 62 91 23 36 46
70 50 75 5 6 21 33 37 60 16 28 33 52 37 53 4 2 8 7 8 11 0 5 23 48 51 97 45
78 121 220 124 234 1 3 20 44 43 91 23 47 42 91 42 98 0 6 5 11 12 11 6 0 8 3
5 6 -3 4 -1 16 5 28 7 11 13 23 13 26 1 3 9 22 18 44 9 21 17 40 17 42 0 1 5
15 12 31 6 15 12 33 13 38 0 6 4 17 8 25 25 57 54 149 50 154 -4 3 0 6 7 6 7
0 11 3 7 6 -3 4 0 21 7 38 7 17 14 36 15 41 1 6 9 33 17 61 14 49 19 68 30
123 3 14 7 28 9 31 2 4 7 20 9 36 3 16 8 40 12 54 19 79 27 118 29 140 1 14 3
25 4 25 1 0 4 16 7 35 2 19 7 46 10 60 7 29 9 40 25 170 12 99 13 110 25 280
6 94 7 513 1 632 -1 27 -6 48 -10 48 -4 0 -3 8 2 19 6 10 8 20 6 22 -2 3 -6
27 -9 54 -21 189 -25 219 -42 320 -9 50 -18 104 -20 120 -4 25 -13 65 -19 85
-1 3 -5 23 -9 45 -4 22 -14 63 -21 90 -8 28 -16 61 -19 75 -3 14 -16 63 -31
110 -14 47 -28 92 -30 100 -32 116 -117 335 -198 510 -17 36 -31 67 -32 70 -2
8 -93 182 -112 215 -10 17 -24 41 -32 55 -9 14 -16 27 -16 30 0 3 -10 19 -23
37 -12 17 -22 34 -22 37 0 13 -227 345 -261 382 -10 11 -19 24 -19 28 0 5 -8
16 -18 25 -9 9 -35 39 -56 66 -22 28 -54 66 -72 85 l-34 35 25 28 c13 16 39
47 57 70 18 22 50 61 71 86 20 25 41 51 45 56 10 12 98 121 112 138 41 49 57
69 95 117 132 172 266 409 279 493 1 6 4 17 8 22 5 9 14 52 24 120 5 32 5 248
0 272 -2 11 -8 43 -12 70 -9 54 -9 52 -16 73 -3 8 -16 44 -28 80 -13 36 -30
76 -39 90 -9 14 -23 37 -31 53 -7 15 -17 27 -22 27 -4 0 -8 6 -8 12 0 18 -129
139 -191 181 -164 108 -320 152 -524 148 -174 -4 -239 -15 -365 -64 -48 -18
-156 -76 -185 -99 -129 -101 -170 -136 -222 -189 -73 -76 -154 -173 -209 -249
-21 -30 -44 -62 -51 -70 -26 -33 -109 -147 -124 -170 -10 -14 -26 -35 -38 -47
-12 -12 -21 -25 -21 -27 0 -10 -91 -126 -98 -126 -4 0 -20 8 -37 18 -39 24
-287 122 -308 122 -9 0 -19 5 -22 10 -3 6 -15 10 -26 10 -10 0 -27 4 -37 10
-29 17 -312 97 -377 106 -22 4 -48 10 -57 15 -10 6 -18 8 -18 5 0 -2 -17 0
-37 5 -47 12 -65 15 -128 25 -27 4 -57 9 -65 10 -24 6 -92 15 -135 19 -22 2
-55 6 -73 10 -43 7 -135 15 -252 20 -52 3 -97 5 -100 6 -21 6 -407 2 -403 -3
2 -5 -7 -4 -20 1 -14 6 -27 7 -30 5 -3 -3 -31 -7 -64 -9 -86 -6 -197 -15 -224
-20 -13 -2 -46 -6 -74 -10 -27 -3 -70 -8 -95 -12 -25 -3 -54 -7 -65 -9 -11 -1
-20 -3 -20 -4 0 -2 -22 -6 -75 -14 -19 -3 -66 -12 -105 -21 -38 -9 -79 -17
-90 -19 -11 -2 -40 -9 -65 -16 -25 -8 -50 -13 -57 -11 -6 1 -14 -3 -18 -9 -3
-5 -15 -10 -27 -10 -25 0 -354 -110 -423 -141 -27 -13 -52 -24 -55 -24 -16 -5
-50 -19 -82 -37 -21 -10 -38 -16 -38 -13 0 4 -7 -1 -16 -9 -8 -9 -21 -16 -29
-16 -7 0 -46 45 -86 101 -41 55 -84 112 -96 127 -13 15 -23 30 -23 33 0 3 -8
15 -17 26 -10 11 -52 66 -93 122 -41 56 -82 111 -92 122 -9 11 -31 39 -50 61
-36 46 -186 198 -194 198 -2 0 -19 13 -37 29 -36 33 -166 121 -177 121 -4 0
-13 7 -20 15 -7 9 -15 13 -18 10 -3 -3 -10 -1 -16 4 -15 12 -163 60 -206 67
-63 9 -248 23 -253 18z m3488 -2388 c22 -2 56 -7 75 -10 19 -3 53 -7 75 -10
72 -10 192 -36 275 -60 30 -9 62 -18 70 -20 16 -4 143 -52 220 -82 25 -10 48
-23 52 -29 4 -5 8 -7 8 -3 0 3 32 -11 71 -33 40 -21 78 -39 85 -39 8 0 14 -3
14 -7 0 -5 25 -21 55 -38 30 -16 55 -33 55 -37 0 -4 4 -8 10 -8 10 0 143 -88
175 -117 12 -10 41 -34 65 -53 94 -72 259 -235 339 -335 31 -38 61 -75 66 -81
6 -6 17 -22 25 -34 8 -12 23 -31 33 -42 9 -12 17 -25 17 -29 0 -4 6 -14 13
-21 14 -15 59 -84 87 -133 11 -19 30 -52 41 -72 35 -60 94 -182 124 -253 15
-36 34 -80 41 -97 8 -18 14 -34 14 -35 0 -2 16 -48 35 -103 19 -55 35 -108 35
-117 0 -10 4 -18 8 -18 4 0 8 -8 9 -17 0 -10 3 -27 6 -38 17 -66 33 -140 47
-215 14 -83 19 -111 25 -160 3 -25 8 -63 10 -85 3 -22 8 -91 10 -154 3 -63 7
-116 10 -119 2 -3 0 -13 -6 -23 -5 -11 -6 -19 -2 -19 4 0 7 -24 6 -52 -3 -106
-13 -284 -18 -323 -2 -22 -7 -65 -11 -95 -3 -30 -7 -62 -9 -71 -2 -9 -6 -32
-9 -50 -6 -35 -9 -49 -26 -134 -17 -84 -18 -87 -45 -180 -14 -49 -28 -98 -30
-108 -2 -9 -7 -22 -10 -27 -3 -5 -8 -18 -10 -29 -5 -28 -113 -294 -122 -300
-5 -3 -9 -13 -11 -21 -9 -45 -198 -350 -252 -407 -11 -13 -18 -23 -15 -23 3 0
-4 -10 -15 -22 -12 -13 -36 -41 -53 -62 -65 -81 -311 -316 -355 -340 -10 -5
-21 -14 -27 -20 -30 -36 -423 -274 -465 -282 -3 0 -27 -11 -55 -23 -27 -13
-54 -24 -60 -25 -5 -2 -23 -8 -38 -14 -16 -7 -30 -12 -32 -12 -2 0 -16 -5 -32
-12 -15 -6 -34 -13 -40 -15 -7 -1 -19 -5 -25 -6 -7 -2 -20 -7 -28 -10 -29 -11
-224 -55 -275 -62 -16 -3 -41 -7 -55 -9 -164 -32 -528 -37 -725 -11 -22 3 -56
8 -75 11 -19 3 -48 7 -65 9 -50 7 -239 55 -257 65 -10 6 -27 10 -38 10 -11 0
-28 4 -38 9 -9 5 -55 24 -102 42 -92 35 -298 138 -370 184 -25 16 -48 29 -51
28 -4 -1 -15 7 -24 17 -10 11 -22 20 -27 20 -9 0 -151 107 -238 179 -126 106
-254 245 -418 456 -26 33 -131 201 -129 206 1 4 -5 15 -14 25 -20 24 -132 246
-148 295 -6 20 -20 53 -31 74 -11 22 -20 47 -20 57 0 9 -4 20 -10 23 -6 3 -10
17 -10 30 0 13 -4 26 -9 29 -4 3 -12 20 -16 38 -4 18 -9 38 -11 43 -8 25 -35
122 -39 138 -2 10 -7 27 -10 37 -6 18 -10 38 -21 95 -14 75 -25 143 -30 180
-3 22 -7 51 -9 65 -25 139 -25 659 0 800 2 14 6 48 9 75 3 28 5 50 6 50 3 0
11 41 14 75 2 19 5 35 6 35 1 0 4 14 6 30 3 17 12 57 21 90 8 33 17 74 20 90
3 17 10 36 15 43 6 6 8 12 5 12 -11 0 89 291 119 343 8 15 12 27 8 27 -4 0 1
9 11 20 10 11 15 20 12 20 -12 0 130 262 145 268 4 2 8 8 8 14 0 6 11 26 25
44 14 18 25 36 25 41 0 4 14 23 30 42 17 18 30 36 30 40 0 3 13 20 28 37 15
18 45 54 67 80 84 102 253 262 361 344 32 25 61 47 64 50 11 13 179 120 235
150 33 19 68 40 78 48 9 8 17 12 17 8 0 -4 19 4 43 17 68 37 262 116 322 131
6 2 17 6 25 9 18 7 98 29 124 34 11 2 47 10 80 17 83 20 166 32 281 42 39 3
71 7 72 8 5 4 406 -3 448 -8z"/>
<path d="M3421 5090 c-12 -7 0 -248 14 -321 3 -13 8 -40 11 -59 8 -46 12 -65
14 -65 1 0 3 -15 6 -33 5 -44 82 -282 100 -309 8 -13 12 -23 9 -23 -5 0 115
-241 125 -250 3 -3 28 -38 55 -79 28 -41 63 -90 80 -110 54 -66 267 -271 281
-271 8 0 14 -4 14 -9 0 -24 300 -196 410 -236 123 -44 169 -56 305 -82 123
-23 529 -22 597 2 7 2 25 7 41 10 69 13 86 17 152 37 39 11 88 28 110 37 52
21 262 128 278 141 7 5 37 27 67 47 104 70 278 230 330 303 13 19 29 40 36 45
41 35 171 260 213 370 13 33 30 74 37 90 7 17 20 57 29 90 9 33 20 71 25 85 5
14 12 37 14 53 3 15 7 35 10 45 3 9 8 31 10 47 2 17 6 41 9 55 9 38 19 146 23
235 1 44 4 81 4 83 2 2 2 57 1 70 -1 8 -3398 10 -3410 2z"/>
</g>
</svg>
